{"accessors":[{"bufferView":0,"byteOffset":0,"componentType":5126,"count":737,"max":[1.0,1.0,1.0],"min":[0.0,0.0,0.0],"type":"VEC3"},{"bufferView":1,"byteOffset":0,"componentType":5125,"count":4410,"type":"SCALAR"},{"bufferView":2,"byteOffset":0,"componentType":5126,"count":4,"max":[0.3808178725724549,0.5891230674013167,0.8740280376893634],"min":[0.257639264381615,0.5053967323155157,0.715479800262374],"type":"VEC3"},{"bufferView":3,"byteOffset":0,"componentType":5125,"count":12,"type":"SCALAR"},{"bufferView":4,"byteOffset":0,"componentType":5126,"count":4,"max":[0.356091468647508,0.654976638643931,0.8740280376893634],"min":[0.257639264381615,0.5074432897647045,0.715479800262374],"type":"VEC3"},{"bufferView":5,"byteOffset":0,"componentType":5125,"count":12,"type":"SCALAR"},{"bufferView":6,"byteOffset":0,"componentType":5126,"count":4,"max":[0.3808178725724549,0.5891230674013167,0.7754368833066895],"min":[0.257639264381615,0.425481455662,0.672526896926955],"type":"VEC3"},{"bufferView":7,"byteOffset":0,"componentType":5125,"count":12,"type":"SCALAR"},{"bufferView":8,"byteOffset":0,"componentType":5126,"count":4,"max":[0.3808178725724549,0.654976638643931,0.8740280376893634],"min":[0.3330435497584333,0.5053967323155157,0.715479800262374],"type":"VEC3"},{"bufferView":9,"byteOffset":0,"componentType":5125,"count":12,"type":"SCALAR"},{"bufferView":10,"byteOffset":0,"componentType":5126,"count":4,"max":[0.3808178725724549,0.5306375876217235,0.8860332060827621],"min":[0.257639264381615,0.4337998629154732,0.7709183556580745],"type":"VEC3"},{"bufferView":11,"byteOffset":0,"componentType":5125,"count":12,"type":"SCALAR"}],"asset":{"generator":"VTK","version":"2.0"},"bufferViews":[{"buffer":0,"byteLength":8844,"byteOffset":0},{"buffer":1,"byteLength":17640,"byteOffset":0},{"buffer":2,"byteLength":48,"byteOffset":0},{"buffer":3,"byteLength":48,"byteOffset":0},{"buffer":4,"byteLength":48,"byteOffset":0},{"buffer":5,"byteLength":48,"byteOffset":0},{"buffer":6,"byteLength":48,"byteOffset":0},{"buffer":7,"byteLength":48,"byteOffset":0},{"buffer":8,"byteLength":48,"byteOffset":0},{"buffer":9,"byteLength":48,"byteOffset":0},{"buffer":10,"byteLength":48,"byteOffset":0},{"buffer":11,"byteLength":48,"byteOffset":0}],"buffers":[{"byteLength":8844,"uri":"data:application/octet-stream;base64,"},{"byteLength":17640,"uri":"data:application/octet-stream;base64,"},{"byteLength":48,"uri":"data:application/octet-stream;base64,"},{"byteLength":48,"uri":"data:application/octet-stream;base64,"},{"byteLength":48,"uri":"data:application/octet-stream;base64,"},{"byteLength":48,"uri":"data:application/octet-stream;base64,"},{"byteLength":48,"uri":"data:application/octet-stream;base64,"},{"byteLength":48,"uri":"data:application/octet-stream;base64,"},{"byteLength":48,"uri":"data:application/octet-stream;base64,"},{"byteLength":48,"uri":"data:application/octet-stream;base64,"},{"byteLength":48,"uri":"data:application/octet-stream;base64,"},{"byteLength":48,"uri":"data:application/octet-stream;base64,"}],"cameras":[{"perspective":{"aspectRatio":1.3333333333333333,"yfov":0.5235987755982988,"zfar":1000.01,"znear":0.01},"type":"perspective"}],"materials":[{"pbrMetallicRoughness":{"baseColorFactor":[0.0,0.0,0.0,1.0],"metallicFactor":0.0,"roughnessFactor":1.0}},{"pbrMetallicRoughness":{"baseColorFactor":[0.9215686274509803,0.796078431372549,0.5450980392156862,1.0],"metallicFactor":0.0,"roughnessFactor":1.0}},{"pbrMetallicRoughness":{"baseColorFactor":[0.3686274509803922,0.5058823529411764,0.6745098039215687,0.5],"metallicFactor":0.0,"roughnessFactor":1.0}},{"pbrMetallicRoughness":{"baseColorFactor":[0.3686274509803922,0.5058823529411764,0.6745098039215687,0.5],"metallicFactor":0.0,"roughnessFactor":1.0}},{"pbrMetallicRoughness":{"baseColorFactor":[0.3686274509803922,0.5058823529411764,0.6745098039215687,0.5],"metallicFactor":0.0,"roughnessFactor":1.0}},{"pbrMetallicRoughness":{"baseColorFactor":[0.3686274509803922,0.5058823529411764,0.6745098039215687,0.5],"metallicFactor":0.0,"roughnessFactor":1.0}}],"meshes":[{"name":"mesh0","primitives":[{"attributes":{"POSITION":0},"indices":1,"material":0,"mode":4}]},{"name":"mesh1","primitives":[{"attributes":{"POSITION":2},"indices":3,"material":1,"mode":4}]},{"name":"mesh2","primitives":[{"attributes":{"POSITION":4},"indices":5,"material":2,"mode":4}]},{"name":"mesh3","primitives":[{"attributes":{"POSITION":6},"indices":7,"material":3,"mode":4}]},{"name":"mesh4","primitives":[{"attributes":{"POSITION":8},"indices":9,"material":4,"mode":4}]},{"name":"mesh5","primitives":[{"attributes":{"POSITION":10},"indices":11,"material":5,"mode":4}]}],"nodes":[{"matrix":[2.2204460492503136e-16,-2.2204460492503126e-16,1.0,0.0,1.0,2.220446049250313e-16,-2.220446049250313e-16,0.0,-2.2204460492503126e-16,1.0,2.220446049250313e-16,0.0,0.0,0.0,0.0,1.0],"mesh":0,"name":"mesh0"},{"matrix":[2.2204460492503136e-16,-2.2204460492503126e-16,1.0,0.0,1.0,2.220446049250313e-16,-2.220446049250313e-16,0.0,-2.2204460492503126e-16,1.0,2.220446049250313e-16,0.0,0.0,0.0,0.0,1.0],"mesh":1,"name":"mesh1"},{"matrix":[2.2204460492503136e-16,-2.2204460492503126e-16,1.0,0.0,1.0,2.220446049250313e-16,-2.220446049250313e-16,0.0,-2.2204460492503126e-16,1.0,2.220446049250313e-16,0.0,0.0,0.0,0.0,1.0],"mesh":2,"name":"mesh2"},{"matrix":[2.2204460492503136e-16,-2.2204460492503126e-16,1.0,0.0,1.0,2.220446049250313e-16,-2.220446049250313e-16,0.0,-2.2204460492503126e-16,1.0,2.220446049250313e-16,0.0,0.0,0.0,0.0,1.0],"mesh":3,"name":"mesh3"},{"matrix":[2.2204460492503136e-16,-2.2204460492503126e-16,1.0,0.0,1.0,2.220446049250313e-16,-2.220446049250313e-16,0.0,-2.2204460492503126e-16,1.0,2.220446049250313e-16,0.0,0.0,0.0,0.0,1.0],"mesh":4,"name":"mesh4"},{"matrix":[2.2204460492503136e-16,-2.2204460492503126e-16,1.0,0.0,1.0,2.220446049250313e-16,-2.220446049250313e-16,0.0,-2.2204460492503126e-16,1.0,2.220446049250313e-16,0.0,0.0,0.0,0.0,1.0],"mesh":5,"name":"mesh5"},{"camera":0,"matrix":[1.0,-0.0,0.0,-0.0,-0.0,1.0,-0.0,0.0,0.0,-0.0,1.0,-0.0,-0.0,0.0,1.0,1.0],"name":"Camera Node"},{"children":[0,1,2,3,4,5,6],"name":"Renderer Node"}],"scene":0,"scenes":[{"name":"Layer 0","nodes":[7]}]}